<svg xmlns="http://www.w3.org/2000/svg" viewBox="0 0 80 100" width="80" height="100">
  <!-- Clean palm leaf mark -->
  <defs>
    <linearGradient id="stemGrad" x1="0%" y1="0%" x2="0%" y2="100%">
      <stop offset="0%" stop-color="#C8A14A"/>
      <stop offset="100%" stop-color="#A88A3A"/>
    </linearGradient>
  </defs>
  <!-- Stem -->
  <path d="M38 95 L42 95 L40 48 Z" fill="url(#stemGrad)"/>
  <!-- Leaflets -->
  <g fill="#0E3B2E">
    <!-- Top center-ish -->
    <path d="M40 48 Q28 40 22 28 Q30 36 40 44 Z"/>
    <path d="M40 46 Q52 38 58 26 Q50 34 40 42 Z"/>
    <!-- Mid upper -->
    <path d="M40 55 Q24 50 16 36 Q26 46 40 52 Z"/>
    <path d="M40 53 Q56 48 64 34 Q54 44 40 50 Z"/>
    <!-- Mid -->
    <path d="M40 65 Q22 62 12 48 Q24 56 40 62 Z"/>
    <path d="M40 63 Q58 60 68 46 Q56 54 40 60 Z"/>
    <!-- Lower mid -->
    <path d="M40 76 Q24 76 14 64 Q26 70 40 74 Z"/>
    <path d="M40 74 Q56 74 66 62 Q54 68 40 72 Z"/>
    <!-- Bottom -->
    <path d="M40 86 Q28 88 20 78 Q30 82 40 84 Z"/>
    <path d="M40 84 Q52 86 60 76 Q50 80 40 82 Z"/>
  </g>
</svg>
